<?xml version="1.0" encoding="UTF-8" standalone="no"?>
<!-- Generator: Adobe Illustrator 16.0.0, SVG Export Plug-In . SVG Version: 6.00 Build 0)  -->

<svg
   xmlns:dc="http://purl.org/dc/elements/1.1/"
   xmlns:cc="http://creativecommons.org/ns#"
   xmlns:rdf="http://www.w3.org/1999/02/22-rdf-syntax-ns#"
   xmlns:svg="http://www.w3.org/2000/svg"
   xmlns="http://www.w3.org/2000/svg"
   xmlns:sodipodi="http://sodipodi.sourceforge.net/DTD/sodipodi-0.dtd"
   xmlns:inkscape="http://www.inkscape.org/namespaces/inkscape"
   version="1.1"
   id="Layer_1"
   x="0px"
   y="0px"
   width="247.97202"
   height="152.86299"
   viewBox="0 0 247.97201 152.86298"
   enable-background="new 0 0 841.89 595.28"
   xml:space="preserve"
   sodipodi:docname="digitalliving.svg"
   inkscape:version="0.92.2 (5c3e80d, 2017-08-06)"><metadata
     id="metadata3802"><rdf:RDF><cc:Work
         rdf:about=""><dc:format>image/svg+xml</dc:format><dc:type
           rdf:resource="http://purl.org/dc/dcmitype/StillImage" /><dc:title></dc:title></cc:Work></rdf:RDF></metadata><defs
     id="defs3800" /><sodipodi:namedview
     pagecolor="#ffffff"
     bordercolor="#666666"
     borderopacity="1"
     objecttolerance="10"
     gridtolerance="10"
     guidetolerance="10"
     inkscape:pageopacity="0"
     inkscape:pageshadow="2"
     inkscape:window-width="1118"
     inkscape:window-height="1208"
     id="namedview3798"
     showgrid="false"
     fit-margin-top="0"
     fit-margin-left="0"
     fit-margin-right="0"
     fit-margin-bottom="0"
     inkscape:zoom="1.9284196"
     inkscape:cx="225.26612"
     inkscape:cy="34.278097"
     inkscape:window-x="3454"
     inkscape:window-y="630"
     inkscape:window-maximized="0"
     inkscape:current-layer="Layer_1" /><g
     id="g3795"
     transform="translate(-303.832,-198.608)"><path
       d="m 337.615,264.974 v -4.578 h -0.182 c -3.131,3.796 -7.553,5.647 -13.175,5.647 -5.935,0 -10.852,-2.334 -14.687,-7.108 -3.822,-4.761 -5.739,-10.604 -5.739,-17.452 0,-6.861 1.917,-12.679 5.739,-17.479 3.835,-4.774 8.752,-7.122 14.687,-7.122 5.204,0 9.652,1.683 13.356,5.074 v -23.087 h 11.374 v 66.104 h -11.373 z m -10.773,-37.696 c -3.887,0 -6.783,1.526 -8.713,4.552 -1.617,2.452 -2.439,5.674 -2.439,9.652 0,3.965 0.822,7.147 2.439,9.626 1.93,3.065 4.826,4.552 8.713,4.552 3.912,0 6.848,-1.487 8.856,-4.552 1.526,-2.479 2.335,-5.661 2.335,-9.626 0,-3.979 -0.809,-7.2 -2.335,-9.652 -2.009,-3.026 -4.944,-4.552 -8.856,-4.552"
       id="path3773"
       inkscape:connector-curvature="0" /><path
       d="m 424.707,217.991 v 45.926 c 0,6.274 -2.282,10.722 -6.834,13.383 -3.81,2.191 -9.652,3.248 -17.57,3.248 -6.678,0 -11.739,-1.67 -15.144,-5.087 -2.674,-2.674 -3.966,-5.817 -3.966,-9.47 h 11.831 c 0.991,3.9 4.239,5.817 9.679,5.817 7.096,0 10.67,-3.17 10.67,-9.457 v -4.995 c -3.196,3.47 -7.696,5.217 -13.37,5.217 -5.922,0 -10.826,-2.113 -14.635,-6.248 -3.835,-4.161 -5.766,-9.678 -5.766,-16.63 0,-6.913 1.931,-12.443 5.766,-16.617 3.809,-4.135 8.713,-6.196 14.635,-6.196 5.635,0 10.044,1.865 13.2,5.648 h 0.17 v -4.54 h 11.334 z m -10.93,21.704 c 0,-3.065 -0.809,-5.778 -2.349,-8.087 -2.034,-2.883 -4.982,-4.331 -8.843,-4.331 -3.822,0 -6.705,1.448 -8.688,4.331 -1.617,2.309 -2.426,5.021 -2.426,8.087 0,3.117 0.809,5.817 2.426,8.087 1.982,2.922 4.865,4.356 8.688,4.356 3.86,0 6.809,-1.435 8.843,-4.356 1.541,-2.269 2.349,-4.97 2.349,-8.087"
       id="path3775"
       inkscape:connector-curvature="0" /><path
       d="m 459.964,217.991 v -16.708 h 11.335 v 16.708 h 10.121 v 8.166 h -10.121 v 23.752 c 0,2.061 0.312,3.496 0.939,4.278 0.756,0.979 2.139,1.487 4.187,1.487 l 4.995,-0.574 v 9.3 c -3.6,0.744 -6.586,1.122 -9,1.122 -8.282,0 -12.456,-3.77 -12.456,-11.335 v -28.03 h -6.848 v -8.166 z"
       id="path3777"
       inkscape:connector-curvature="0" /><path
       d="m 529.408,232.261 v 24.795 c 0,3.405 0.573,6.052 1.773,7.917 h -11.975 c -0.781,-1.135 -1.121,-2.543 -1.121,-4.278 -4.461,3.6 -9.561,5.348 -15.34,5.348 -4.578,0 -8.36,-1.343 -11.399,-4.004 -3.026,-2.674 -4.539,-6.274 -4.539,-10.735 0,-7.904 4.761,-12.809 14.282,-14.661 l 4.723,-0.926 c 3.195,-0.613 7.252,-1.539 12.273,-2.791 v -1.37 c 0,-3.978 -2.975,-5.974 -8.922,-5.974 -3.3,0 -5.582,0.548 -6.835,1.578 -1.239,1.044 -1.878,2.896 -1.878,5.492 l -11.348,-0.47 c 0,-5.139 2.074,-9.039 6.131,-11.804 3.6,-2.322 8.242,-3.496 13.93,-3.496 6.144,0 10.787,0.848 13.931,2.688 4.214,2.386 6.314,6.625 6.314,12.691 m -11.322,15.913 v -6.691 c -1.239,0.6 -3.039,1.161 -5.374,1.669 l -6.235,1.292 c -2.607,0.535 -4.422,1.2 -5.478,1.943 -1.565,1.004 -2.335,2.491 -2.335,4.539 0,1.748 0.691,3.144 2.126,4.239 1.356,1.096 3.118,1.604 5.218,1.604 3.039,0 5.713,-0.666 7.996,-1.996 2.699,-1.63 4.082,-3.847 4.082,-6.599"
       id="path3779"
       inkscape:connector-curvature="0" /><rect
       x="337.43399"
       y="269.79999"
       width="11.334"
       height="66.071999"
       id="rect3781" /><polygon
       points="393.508,288.908 402.846,321.367 403.068,321.367 412.459,288.908 424.42,288.908 408.912,335.872 397.003,335.872 381.533,288.908 "
       id="polygon3783" /><path
       d="m 459.756,335.872 v -46.964 h 11.309 v 4.618 c 3.195,-3.795 7.5,-5.739 12.912,-5.739 10.813,0 16.266,5.321 16.266,15.945 v 32.14 h -11.348 v -28.696 c 0,-5.635 -2.582,-8.452 -7.761,-8.452 -2.935,0 -5.282,1.018 -7.096,2.974 -1.944,2.166 -2.974,5.296 -2.974,9.392 v 24.783 h -11.308 z"
       id="path3785"
       inkscape:connector-curvature="0" /><rect
       x="435.129"
       y="198.804"
       width="11.57"
       height="137.146"
       id="rect3787" /><rect
       x="360.95001"
       y="198.804"
       width="11.636"
       height="137.146"
       id="rect3789" /><path
       d="m 551.804,288.908 h -11.062 v 4.553 h -0.182 c -3.145,-3.796 -7.539,-5.674 -13.188,-5.674 -5.922,0 -10.84,2.074 -14.661,6.222 -3.835,4.141 -5.752,9.698 -5.752,16.61 0,6.913 1.917,12.47 5.752,16.618 3.821,4.174 8.739,6.234 14.661,6.234 5.674,0 10.148,-1.722 13.369,-5.243 v 5.035 c 0,6.312 -3.561,9.469 -10.695,9.469 -5.413,0 -8.648,-1.93 -9.639,-5.844 h -11.87 c 0,3.652 1.317,6.836 3.978,9.496 3.405,3.365 8.466,5.087 15.131,5.087 7.918,0 13.774,-1.069 17.557,-3.261 3.705,-2.139 5.896,-5.53 6.601,-10.069 z m -13.005,29.799 c -2.061,2.896 -4.996,4.355 -8.817,4.355 -3.848,0 -6.73,-1.46 -8.739,-4.355 -1.617,-2.296 -2.412,-4.983 -2.412,-8.088 0,-3.078 0.795,-5.791 2.412,-8.087 2.009,-2.896 4.892,-4.33 8.739,-4.33 3.821,0 6.757,1.435 8.817,4.33 1.526,2.296 2.296,5.009 2.296,8.087 0,3.105 -0.77,5.792 -2.296,8.088"
       id="path3791"
       inkscape:connector-curvature="0" /><rect
       x="540.41602"
       y="198.608"
       width="11.388"
       height="96.385002"
       id="rect3793" /></g></svg>