<svg id="Layer_1" data-name="Layer 1" xmlns="http://www.w3.org/2000/svg" xmlns:xlink="http://www.w3.org/1999/xlink" viewBox="0 0 600 600"><defs><style>.cls-1{fill:#fff;}.cls-2{fill:url(#linear-gradient);}.cls-3{fill:#333;}</style><linearGradient id="linear-gradient" x1="56.61123" y1="721.56208" x2="495.92394" y2="-39.34986" gradientUnits="userSpaceOnUse"><stop offset="0" stop-color="#2b2c2e"/><stop offset="0.01148" stop-color="#2f3032"/><stop offset="0.05649" stop-color="#3c3d3f"/><stop offset="0.1" stop-color="#404143"/><stop offset="0.13977" stop-color="#444547"/><stop offset="0.18098" stop-color="#4e5154"/><stop offset="0.22269" stop-color="#606668"/><stop offset="0.25" stop-color="#6f777a"/><stop offset="0.28578" stop-color="#787e81"/><stop offset="0.3555" stop-color="#85888b"/><stop offset="0.4229" stop-color="#898b8e"/><stop offset="0.48086" stop-color="#8b8d91"/><stop offset="0.51571" stop-color="#939599"/><stop offset="0.54444" stop-color="#9fa3a7"/><stop offset="0.5697" stop-color="#b1b6bb"/><stop offset="0.58939" stop-color="#c4cbd1"/><stop offset="0.61981" stop-color="#b4bbc0"/><stop offset="0.69807" stop-color="#8e969a"/><stop offset="0.76088" stop-color="#777f83"/><stop offset="0.8" stop-color="#6f777a"/><stop offset="0.81379" stop-color="#666d70"/><stop offset="0.8613" stop-color="#4c5153"/><stop offset="0.90857" stop-color="#3a3c3f"/><stop offset="0.95509" stop-color="#2f3032"/><stop offset="1" stop-color="#2b2c2e"/></linearGradient></defs><circle class="cls-1" cx="302.56847" cy="296.80973" r="263.91073"/><path class="cls-2" d="M483.2555,135.97144l1.95561,2.08133q1.30689,1.49327,2.58542,3.01151L367.17,204.68334l-68.40006-68.66882-68.66889,68.67107L165.40751,170.062v73.89034H438.70475V405.91886l-139.91137,88.9724L158.84161,407.83934V274.319h6.5659V404.19056l133.34533,82.94627,133.386-84.82409V250.51821H158.84161V159.10048l70.06022,37.49575,69.87445-69.87459,69.60357,69.8767ZM597.5,300.00046C597.49993,464.30535,464.30475,597.49975,300,597.49975c-164.30482,0-297.5-133.19454-297.5-297.49929C2.50007,135.69564,135.69525,2.50025,300,2.50025,464.30482,2.50025,597.5,135.69571,597.5,300.00046Zm-51.46291,0a245.03764,245.03764,0,0,0-58.24056-158.93618l.16324-.08609-2.74866-2.92542A245.44418,245.44418,0,0,0,300,53.96358c-135.88246,0-246.03709,110.15371-246.03709,246.03688,0,135.88217,110.15456,246.03687,246.03709,246.03687C435.88267,546.03733,546.03709,435.88263,546.03709,300.00046Z"/><path class="cls-1" d="M122.0954,513.01146a10.82492,10.82492,0,0,1-8.83692-3.334,11.82007,11.82007,0,0,1-3.89843-8.37207,11.47209,11.47209,0,0,1,3.498-8.54785,11.26446,11.26446,0,0,1,8.44336-3.78906,12.11041,12.11041,0,0,1,8.50489,3.65429,13.07579,13.07579,0,0,1,2.791,3.90235,8.967,8.967,0,0,1,.93653,4.2832l-5.2002.124a4.54655,4.54655,0,0,0-.32715-2.46,6.39717,6.39717,0,0,0-1.48828-2.16113,6.02473,6.02473,0,0,0-4.68945-1.79492,6.9997,6.9997,0,0,0-4.74121,2.31152,7.07926,7.07926,0,0,0-2.18457,4.81641,5.91785,5.91785,0,0,0,1.96,4.56152,5.4142,5.4142,0,0,0,5.001,1.63086Z"/><path class="cls-1" d="M134.57391,527.30442l-12.03222-9.90918,14.335-17.41113,11.59473,9.54785-2.93555,3.56641-7.5752-6.23731-2.69336,3.26954,7.16114,5.89648-2.77344,3.36914-7.16113-5.89648-2.97657,3.61425,8.01368,6.59961Z"/><path class="cls-1" d="M153.17645,540.58567l-5.16406-3.6289,1.19727-10.09961-1.4961-1.05176-5.14843,7.32227-4.33692-3.04786,12.96973-18.45117,6.96972,4.89942a13.43565,13.43565,0,0,1,2.37989,2.10058,9.51217,9.51217,0,0,1,1.5791,2.47364,5.28054,5.28054,0,0,1,.38574,2.87988,6.88692,6.88692,0,0,1-1.26855,3.04,6.076,6.076,0,0,1-3.20508,2.41992,6.62473,6.62473,0,0,1-4.08789-.11035Zm3.64942-16.55175q1.44726-2.05957-1.4961-4.12793l-2.34863-1.65039-3.02246,4.2998,2.08984,1.46973Q155.25068,526.27513,156.82587,524.03392Z"/><path class="cls-1" d="M178.81708,535.06028l-5.417-3.23828-9.18555,15.36621-4.63086-2.76855,9.18555-15.36524-5.416-3.23925L165.739,521.824l15.46485,9.24511Z"/><path class="cls-1" d="M177.31122,554.37083l-4.80371-2.52637,10.501-19.959,4.80372,2.52637Z"/><path class="cls-1" d="M202.92059,546.70286l-8.51953-3.90625-1.93847,4.22656,7.85937,3.6045-1.87109,4.083-7.86035-3.60351-3.65137,7.96191-4.84766-2.22265,9.40137-20.5,13.36523,6.1289Z"/><path class="cls-1" d="M204.41766,566.48118l-5.0498-1.99316,8.27734-20.97852,5.04786,1.99121Z"/><path class="cls-1" d="M224.239,573.33567l-14.79785-4.89843,7.08594-21.41016,14.25977,4.71973-1.45118,4.38476-9.31738-3.084-1.33105,4.02246,8.80761,2.915-1.37109,4.14258-8.80762-2.915-1.4707,4.44531,9.85547,3.26367Z"/><path class="cls-1" d="M251.66766,568.53978a11.61755,11.61755,0,0,1-2.23535,4.70507,9.38451,9.38451,0,0,1-3.6416,2.792,13.21726,13.21726,0,0,1-4.35058,1.01855,15.46442,15.46442,0,0,1-4.6045-.4209l-8.09961-1.94726,5.27539-21.92774,7.8545,1.89063a20.331,20.331,0,0,1,3.58789,1.207,13.26624,13.26624,0,0,1,3.08691,1.9375,10.57321,10.57321,0,0,1,2.32324,2.68945,8.929,8.929,0,0,1,1.13672,3.56641A12.714,12.714,0,0,1,251.66766,568.53978Zm-5.46093-1.3125a7.56242,7.56242,0,0,0,.15136-3.19141,4.89169,4.89169,0,0,0-1.12988-2.38574,7.13373,7.13373,0,0,0-1.99414-1.56055,11.03573,11.03573,0,0,0-2.5791-.94824l-2.60742-.62695-3.085,12.82128,2.48437.59864a8.66451,8.66451,0,0,0,5.55078-.27051Q245.38837,570.634,246.20673,567.22728Z"/><path class="cls-1" d="M279.97333,577.26439a6.39965,6.39965,0,0,1-1.07031,2.96777,5.15772,5.15772,0,0,1-2.18555,1.80762,9.83758,9.83758,0,0,1-2.82422.75293,13.38281,13.38281,0,0,1-3.1582-.02442l-8.83594-1.05566,2.67578-22.39356,8.83692,1.05664a12.55739,12.55739,0,0,1,2.61425.585,9.31178,9.31178,0,0,1,2.291,1.17188,4.55963,4.55963,0,0,1,1.61816,2.02148,5.61256,5.61256,0,0,1,.33887,2.87989,4.78957,4.78957,0,0,1-1.334,2.91992,5.56719,5.56719,0,0,1-2.87891,1.48437l-.00781.06446a5.6624,5.6624,0,0,1,3.06933,2.11523A4.99735,4.99735,0,0,1,279.97333,577.26439Zm-5.29785-1.14747q.29589-2.46533-3.4961-2.91992l-2.97558-.35449-.61328,5.12305,3.00781.36035Q274.35858,578.77415,274.67548,576.11692Zm.34179-8.97363q.26074-2.18262-3.15429-2.59082l-2.63184-.31445-.55176,4.61914,2.88282.34375a3.80924,3.80924,0,0,0,2.40918-.35352A2.14778,2.14778,0,0,0,275.01727,567.14329Z"/><path class="cls-1" d="M304.154,562.3181l-9.07519,12.65722-.36524,9.54981-5.39258-.207.36622-9.54883-7.88965-13.3086,6.52636.25,4.44239,8.52247,5.08105-8.15723Z"/><path class="cls-1" d="M332.97333,580.0222a10.82075,10.82075,0,0,1-8.38867,4.33886,11.825,11.825,0,0,1-8.83106-2.70214,11.47549,11.47549,0,0,1-4.01465-8.31934,11.2676,11.2676,0,0,1,2.832-8.80957,12.11385,12.11385,0,0,1,8.40528-3.87695,13.052,13.052,0,0,1,4.76855.53613,8.97,8.97,0,0,1,3.80957,2.168l-3.38672,3.94824a4.53561,4.53561,0,0,0-2.04687-1.40234,6.41582,6.41582,0,0,0-2.60254-.33985,6.02251,6.02251,0,0,0-4.46973,2.28516,7.007,7.007,0,0,0-1.45507,5.07031,7.09242,7.09242,0,0,0,2.11914,4.84668,5.92135,5.92135,0,0,0,4.70214,1.59375,5.40985,5.40985,0,0,0,4.55665-2.62695Z"/><path class="cls-1" d="M354.68329,579.81907l-6.23535.97168-6.14844-8.10351-1.80859.28222,1.37793,8.84473-5.23926.81543-3.46875-22.28418,8.418-1.31055a13.525,13.525,0,0,1,3.1709-.14062,9.55882,9.55882,0,0,1,2.85351.68554,5.2659,5.2659,0,0,1,2.27637,1.80469,6.89316,6.89316,0,0,1,1.19726,3.07031,6.067,6.067,0,0,1-.62793,3.9668,6.62459,6.62459,0,0,1-3.01953,2.75879Zm-8.86035-14.44922q-.38819-2.48583-3.94238-1.93261l-2.83692.44043.80859,5.19433,2.5254-.39258Q346.24334,568.07591,345.82294,565.36985Z"/><path class="cls-1" d="M373.48505,575.40892l-15.1709,3.58691-5.18945-21.94824,14.61718-3.45606,1.06348,4.49512-9.55078,2.25781.97461,4.124,9.02832-2.13575,1.0039,4.24707-9.02832,2.13379,1.07813,4.5586,10.10351-2.38867Z"/><path class="cls-1" d="M394.33563,556.91185a11.62416,11.62416,0,0,1,.56934,5.17773,9.38048,9.38048,0,0,1-1.62988,4.29,13.22327,13.22327,0,0,1-3.167,3.15137,15.4553,15.4553,0,0,1-4.13867,2.0625l-7.915,2.59765-7.0332-21.42871,7.6748-2.51855a20.49027,20.49027,0,0,1,3.6875-.8584,13.26043,13.26043,0,0,1,3.64551.02832,10.53113,10.53113,0,0,1,3.38867,1.06641,8.94737,8.94737,0,0,1,2.84278,2.43652A12.73753,12.73753,0,0,1,394.33563,556.91185Zm-5.33691,1.75293a7.55771,7.55771,0,0,0-1.54785-2.7959,4.90069,4.90069,0,0,0-2.21485-1.43457,7.12021,7.12021,0,0,0-2.5166-.28125,11.12013,11.12013,0,0,0-2.69336.54883l-2.54785.83691,4.11231,12.5293,2.42871-.7959a8.6636,8.6636,0,0,0,4.58008-3.14649Q390.09052,561.99291,388.99872,558.66478Z"/><path class="cls-1" d="M407.01923,563.84935l-5.03125,2.03613-8.46289-20.9043,5.03125-2.03711Z"/><path class="cls-1" d="M418.70282,538.84544l-5.709,2.69043,7.63183,16.19434-4.88086,2.2998L408.112,543.83665l-5.708,2.68945-1.98242-4.20605,16.29785-7.68262Z"/><path class="cls-1" d="M433.92255,550.83177l-4.77149,2.585-10.74121-19.83106,4.77149-2.585Z"/><path class="cls-1" d="M455.99188,537.365l-5.1709,3.2793-15.49316-7.6377-.081.05078,8.00683,12.38672-4.42383,2.80567-12.0791-19.04493,5.19629-3.29589,15.44922,7.62793.08008-.05079L439.487,521.12669l4.42481-2.80664Z"/><path class="cls-1" d="M461.51337,510.80735l-7.46094,5.6709,2.81348,3.70215,6.88379-5.23144,2.71777,3.57519-6.88379,5.23242,5.30176,6.97461-4.24707,3.22754-13.64649-17.95605,11.708-8.89844Z"/><path class="cls-1" d="M485.62274,498.09642a11.49423,11.49423,0,0,1,3.26953,8.71386,13.09935,13.09935,0,0,1-12.915,11.73438,11.49336,11.49336,0,0,1-8.36132-4.08789,11.19638,11.19638,0,0,1-3.22754-8.64453,13.47668,13.47668,0,0,1,12.9375-11.75489A11.19992,11.19992,0,0,1,485.62274,498.09642Zm-4.27441,3.88379a6.98966,6.98966,0,0,0-4.65137-2.44629,6.417,6.417,0,0,0-6.80859,6.18652,7.02345,7.02345,0,0,0,2.001,4.85352,7.22422,7.22422,0,0,0,4.70411,2.52539,6.34194,6.34194,0,0,0,6.80859-6.18457A7.18662,7.18662,0,0,0,481.34833,501.98021Z"/><path class="cls-3" d="M282.75653,231.75267H270.35516V228.362l6.68555-6.05469a3.75415,3.75415,0,0,0,1.4043-2.64062,1.99126,1.99126,0,0,0-.58106-1.48926,2.31937,2.31937,0,0,0-3.19726.14551,3.18691,3.18691,0,0,0-.77539,1.87695l-3.89942-.5332a5.81543,5.81543,0,0,1,2.13184-4.03223,6.78534,6.78534,0,0,1,4.4082-1.48926,7.12564,7.12564,0,0,1,4.38379,1.35547,4.57311,4.57311,0,0,1,1.81641,3.89942,5.0109,5.0109,0,0,1-.7627,2.80957,12.85674,12.85674,0,0,1-2.24023,2.4707l-3.97266,3.53613h7Z"/><path class="cls-3" d="M298.51044,219.66673a14.94933,14.94933,0,0,1,.376,3.46387,15.26025,15.26025,0,0,1-.376,3.4873,9.98475,9.98475,0,0,1-1.1377,2.87012,5.44737,5.44737,0,0,1-2.083,1.998,6.30792,6.30792,0,0,1-3.08789.72657,5.92085,5.92085,0,0,1-3.88769-1.28321,6.87364,6.87364,0,0,1-2.2041-3.25781,14.68331,14.68331,0,0,1-.6416-4.541,14.95117,14.95117,0,0,1,.375-3.46387,9.63217,9.63217,0,0,1,1.15039-2.834,5.46032,5.46032,0,0,1,2.10742-1.97363,6.46753,6.46753,0,0,1,3.10058-.71387,6.4027,6.4027,0,0,1,3.08789.71387,5.39329,5.39329,0,0,1,2.083,1.97363A9.85666,9.85666,0,0,1,298.51044,219.66673Zm-3.79,3.46387a16.1612,16.1612,0,0,0-.09668-1.80469,10.95918,10.95918,0,0,0-.35156-1.75586,3.30987,3.30987,0,0,0-.78711-1.44141,1.73071,1.73071,0,0,0-1.28321-.54492,1.76944,1.76944,0,0,0-1.29589.54492,3.248,3.248,0,0,0-.79981,1.44141,12.08548,12.08548,0,0,0-.36328,1.75586,14.43157,14.43157,0,0,0-.1084,1.80469,14.71505,14.71505,0,0,0,.1084,1.8164,12.39314,12.39314,0,0,0,.36328,1.78028,3.31093,3.31093,0,0,0,.78711,1.45312,1.75875,1.75875,0,0,0,1.30859.54492,1.73071,1.73071,0,0,0,1.28321-.54492,3.311,3.311,0,0,0,.78711-1.45312,11.27878,11.27878,0,0,0,.35156-1.76856A16.37285,16.37285,0,0,0,294.7204,223.1306Z"/><path class="cls-3" d="M314.04755,231.75267H301.64618V228.362l6.68555-6.05469a3.75417,3.75417,0,0,0,1.40429-2.64062,1.99129,1.99129,0,0,0-.58105-1.48926,2.31938,2.31938,0,0,0-3.19727.14551,3.187,3.187,0,0,0-.77539,1.87695l-3.89941-.5332a5.81542,5.81542,0,0,1,2.13183-4.03223,6.78537,6.78537,0,0,1,4.40821-1.48926,7.12564,7.12564,0,0,1,4.38379,1.35547,4.57313,4.57313,0,0,1,1.8164,3.89942,5.0109,5.0109,0,0,1-.76269,2.80957,12.8565,12.8565,0,0,1-2.24024,2.4707l-3.97265,3.53613h7Z"/><path class="cls-3" d="M326.56806,231.75267H322.4997V219.15794l-3.19727,2.4707-2.10742-2.88183,5.64355-4.1416h3.7295Z"/><path class="cls-3" d="M190.67255,333.12864a18.79132,18.79132,0,0,1-6.48242-1.14941,16.31954,16.31954,0,0,1-5.333-3.09277l5.749-6.26465a8.42749,8.42749,0,0,0,2.69629,1.94336,7.688,7.688,0,0,0,3.33008.793q2.10059,0,2.10156-1.3086a1.40683,1.40683,0,0,0-.91211-1.22949,34.25239,34.25239,0,0,0-4.04394-1.50684,13.74865,13.74865,0,0,1-5.3125-2.97363,6.90487,6.90487,0,0,1-1.94336-5.2334,9.07827,9.07827,0,0,1,1.05078-4.4209,8.14815,8.14815,0,0,1,2.79492-3.03222,13.35483,13.35483,0,0,1,3.74707-1.64551,16.095,16.095,0,0,1,4.18262-.53516,15.72685,15.72685,0,0,1,5.68945,1.10938,15.9269,15.9269,0,0,1,5.01563,3.05371l-5.86817,5.98633a6.59076,6.59076,0,0,0-2.2793-1.76465,5.96793,5.96793,0,0,0-2.55761-.65332q-2.29981,0-2.29981,1.26855a.9548.9548,0,0,0,.55567.8916,17.02345,17.02345,0,0,0,2.21972.85254q1.1499.397,1.82422.61426.67383.21826,1.80371.69434a12.90094,12.90094,0,0,1,1.82422.91211,14.55044,14.55044,0,0,1,1.5459,1.14941,6.424,6.424,0,0,1,1.32813,1.4668,7.94729,7.94729,0,0,1,.81347,1.80371,7.32739,7.32739,0,0,1,.33692,2.24023,8.7722,8.7722,0,0,1-3.4502,7.39453A12.99723,12.99723,0,0,1,190.67255,333.12864Z"/><path class="cls-3" d="M219.45575,312.23411v20.10156h-9.43652V312.23411h-6.89844v-7.96875h23.2334v7.96875Z"/><path class="cls-3" d="M229.24872,332.33567V304.26536h12.0918a18.48927,18.48927,0,0,1,4.124.43555,12.6127,12.6127,0,0,1,3.58789,1.42773,6.97464,6.97464,0,0,1,2.65625,2.835,9.36754,9.36754,0,0,1,.97168,4.41993,8.10658,8.10658,0,0,1-1.28906,4.5205,8.34565,8.34565,0,0,1-3.62793,3.05274l7.13672,11.3789H244.03681l-5.39161-10.03125h-.27832v10.03125Zm9.03906-20.73535v4.51953h1.86328q3.29151,0,3.291-2.33984,0-2.17968-2.89453-2.17969Z"/><path class="cls-3" d="M256.28778,318.14134a13.73912,13.73912,0,0,1,4.40137-10.64551,17.57373,17.57373,0,0,1,22.38086,0,13.70734,13.70734,0,0,1,4.4209,10.64551,14.15916,14.15916,0,0,1-4.44043,10.82422,17.06911,17.06911,0,0,1-22.3418,0A14.18916,14.18916,0,0,1,256.28778,318.14134Zm10.03125,0a6.521,6.521,0,0,0,1.56641,4.5,5.35841,5.35841,0,0,0,7.94922,0,6.47807,6.47807,0,0,0,1.58593-4.5,6.10919,6.10919,0,0,0-1.5664-4.36133,5.59975,5.59975,0,0,0-7.96875,0A6.10494,6.10494,0,0,0,266.319,318.14134Z"/><path class="cls-3" d="M291.45575,332.33567V304.26536h9.39648l8.00879,14.2334h.15821l-.39649-14.2334h8.96094v28.07031h-9.63477l-7.77148-13.40136h-.1582l.39648,13.40136Z"/><path class="cls-3" d="M337.08954,333.04954a15.8309,15.8309,0,0,1-11.14063-4.04394,13.8466,13.8466,0,0,1-4.40136-10.70508,14.01532,14.01532,0,0,1,4.38183-10.72461,15.25377,15.25377,0,0,1,10.84375-4.10352,18.23249,18.23249,0,0,1,6.22461,1.07032,12.90216,12.90216,0,0,1,4.83692,2.93359l-5.51172,6.62109a6.14362,6.14362,0,0,0-4.99512-2.25976,5.75359,5.75359,0,0,0-4.22266,1.82422,6.31813,6.31813,0,0,0-1.80371,4.63867,6.99925,6.99925,0,0,0,1.58594,4.85644,6.17665,6.17665,0,0,0,4.83692,1.76465,5.04905,5.04905,0,0,0,2.21972-.39648V322.3845H335.4245v-7.415h12.88574v15.34375a19.44669,19.44669,0,0,1-5.09472,1.96289A25.01923,25.01923,0,0,1,337.08954,333.04954Z"/><path class="cls-3" d="M353.028,332.33567V304.26536h19.30761V312.115H361.90888v2.41895h9.793v7.335h-9.793v2.61621h11.10156v7.85058Z"/><path class="cls-3" d="M386.13348,333.12864a18.7914,18.7914,0,0,1-6.48242-1.14941,16.3196,16.3196,0,0,1-5.333-3.09277l5.749-6.26465a8.42749,8.42749,0,0,0,2.69629,1.94336,7.68789,7.68789,0,0,0,3.33008.793q2.10058,0,2.10156-1.3086a1.40683,1.40683,0,0,0-.91211-1.22949,34.25279,34.25279,0,0,0-4.04395-1.50684,13.74872,13.74872,0,0,1-5.3125-2.97363,6.90491,6.90491,0,0,1-1.94336-5.2334,9.07828,9.07828,0,0,1,1.05079-4.4209,8.14815,8.14815,0,0,1,2.79492-3.03222,13.3547,13.3547,0,0,1,3.74707-1.64551,16.09493,16.09493,0,0,1,4.18261-.53516,15.72686,15.72686,0,0,1,5.68946,1.10938,15.92685,15.92685,0,0,1,5.01562,3.05371l-5.86816,5.98633a6.59076,6.59076,0,0,0-2.2793-1.76465,5.968,5.968,0,0,0-2.55762-.65332q-2.2998,0-2.2998,1.26855a.95481.95481,0,0,0,.55566.8916,17.02438,17.02438,0,0,0,2.21973.85254q1.1499.397,1.82422.61426.67383.21826,1.80371.69434a12.90094,12.90094,0,0,1,1.82422.91211,14.55146,14.55146,0,0,1,1.5459,1.14941,6.42374,6.42374,0,0,1,1.32812,1.4668,7.94729,7.94729,0,0,1,.81348,1.80371,7.32738,7.32738,0,0,1,.33691,2.24023,8.77221,8.77221,0,0,1-3.45019,7.39453A12.99723,12.99723,0,0,1,386.13348,333.12864Z"/><path class="cls-3" d="M414.91669,312.23411v20.10156h-9.43653V312.23411h-6.89843v-7.96875h23.2334v7.96875Z"/><path class="cls-3" d="M196.89618,347.51731v28.07032h-3.9248V347.51731Z"/><path class="cls-3" d="M208.82977,347.51731l14.66993,22.44043h.0791V347.51731h3.9248v28.07032h-4.95605l-14.82813-22.916h-.0791v22.916h-3.9248V347.51731Z"/><path class="cls-3" d="M248.15985,362.74192v9.35645h14.66992v3.48926H244.23505V347.51731h18v3.44922h-14.0752v8.40528H261.402v3.37011Z"/><path class="cls-3" d="M284.79364,350.01439l-2.77441,2.69628a6.24745,6.24745,0,0,0-2.32032-1.90332,7.03044,7.03044,0,0,0-3.15136-.71289,6.46239,6.46239,0,0,0-3.80664,1.16895,3.88608,3.88608,0,0,0-1.665,3.39062,4.0837,4.0837,0,0,0,.39648,1.88282A3.45707,3.45707,0,0,0,272.82,357.8845a11.63619,11.63619,0,0,0,1.70508.873q.75293.29736,2.2998.8125,1.54688.47607,2.35938.77344a16.76214,16.76214,0,0,1,2.12109,1.01074,7.517,7.517,0,0,1,2.00195,1.48633,7.30144,7.30144,0,0,1,1.2295,2.042,7.39775,7.39775,0,0,1,.53515,2.89453,7.53091,7.53091,0,0,1-2.835,6.32422,10.88232,10.88232,0,0,1-6.87891,2.20019,13.22141,13.22141,0,0,1-5.21386-1.05078,9.88367,9.88367,0,0,1-4.02442-3.0332l3.05274-2.57715a7.69761,7.69761,0,0,0,6.26465,3.291,6.46411,6.46411,0,0,0,3.9248-1.249,4.138,4.138,0,0,0,1.70508-3.54882,3.94662,3.94662,0,0,0-.39649-1.78418,4.85412,4.85412,0,0,0-.87207-1.26856,5.51591,5.51591,0,0,0-1.54589-.97168q-1.07081-.49512-1.72461-.7334-.65479-.2373-2.12207-.67382a25.654,25.654,0,0,1-2.67579-1.01075,11.81941,11.81941,0,0,1-2.25976-1.38769,5.56993,5.56993,0,0,1-1.76465-2.28028,8.09067,8.09067,0,0,1-.59473-3.21093,7.16969,7.16969,0,0,1,1.4668-4.54,8.07857,8.07857,0,0,1,3.58887-2.67578,12.972,12.972,0,0,1,4.5791-.793,12.12789,12.12789,0,0,1,4.5791.87207A9.13917,9.13917,0,0,1,284.79364,350.01439Z"/><path class="cls-3" d="M299.82,350.96653v24.6211H295.8952v-24.6211h-9v-3.44922H308.82v3.44922Z"/><path class="cls-3" d="M339.66571,361.51243a14.28581,14.28581,0,0,1-4.22265,10.626,15.71738,15.71738,0,0,1-21.31055,0A15.53517,15.53517,0,0,1,314.112,350.907a15.91223,15.91223,0,0,1,21.33106,0A14.13812,14.13812,0,0,1,339.66571,361.51243Zm-4.24316,0a11.51643,11.51643,0,0,0-2.9336-8.00879,10.72495,10.72495,0,0,0-15.38379,0,12.42692,12.42692,0,0,0,0,16.03809,10.77244,10.77244,0,0,0,15.38379,0A11.49871,11.49871,0,0,0,335.42255,361.51243Z"/><path class="cls-3" d="M350.13251,347.51731l14.66992,22.44043h.0791V347.51731h3.92481v28.07032h-4.95606l-14.82812-22.916h-.0791v22.916h-3.92481V347.51731Z"/><path class="cls-3" d="M379.55048,347.51731v28.07032h-3.92481V347.51731Z"/><path class="cls-3" d="M390.33368,368.68919l-2.81445,6.89844H383.1579l12.17187-28.07032h3.56836l12.05274,28.07032h-4.44043l-2.85449-6.89844Zm6.66113-16.6123L391.72138,365.24h10.50683Z"/></svg>