<svg xmlns="http://www.w3.org/2000/svg" xmlns:xlink="http://www.w3.org/1999/xlink" viewBox="0 0 600 600"><defs><style>.cls-1{fill:url(#linear-gradient);}.cls-2{fill:#030b25;}</style><linearGradient id="linear-gradient" x1="87.87" y1="87.87" x2="512.13" y2="512.13" gradientUnits="userSpaceOnUse"><stop offset="0.08" stop-color="#f3bd3a"/><stop offset="0.21" stop-color="#d29b2d"/><stop offset="0.38" stop-color="#b47915"/><stop offset="0.59" stop-color="#dca630"/><stop offset="0.68" stop-color="#eab336"/><stop offset="1" stop-color="#fcce3b"/></linearGradient></defs><title>Asset 1</title><g id="Layer_2" data-name="Layer 2"><g id="Layer_1-2" data-name="Layer 1"><circle class="cls-1" cx="300" cy="300" r="300"/><path class="cls-2" d="M476.86,428.42V211.79H131.44V118.4l81.76,43.76L300,75.37l86.45,86.79L476.86,114v-9.4L388,151.94,300,63.62l-88.31,88.32-88.55-47.4V220.09H468.56V423.86L300,531.07,131.44,426.24V250.17h-8.3V430.85L300,540.88Z"/><path class="cls-2" d="M280.37,315.21v36h-5.51v-36Z"/><path class="cls-2" d="M289,351.23V312.78l26.13,27.38v-25h5.51v38.24l-26.14-27.38v25.16Z"/><path class="cls-2" d="M224.07,368.4H209.71v9.12h13.93v5.19H209.71v11.34h14.36v5.18H204.2v-36h19.87Z"/><path class="cls-2" d="M246.75,371.21a5.58,5.58,0,0,0-5.51-3.57c-3.34,0-5.07,2-5.07,4.32,0,1.08.38,3,3.89,4.38l3.61,1.45c6.65,2.7,8.48,6.48,8.48,10.59,0,6.86-4.86,11.55-11.61,11.55a10.55,10.55,0,0,1-8.48-3.61,11.71,11.71,0,0,1-3-7l5.45-1.19A7.76,7.76,0,0,0,236,392.7a5.67,5.67,0,0,0,4.69,2.16,5.79,5.79,0,0,0,5.94-6.05c0-3.67-2.8-5.18-5.18-6.16L238,381.2c-3-1.25-7.34-3.73-7.34-9.13,0-4.86,3.78-9.5,10.53-9.5a10.6,10.6,0,0,1,7.24,2.43,12.29,12.29,0,0,1,2.75,3.61Z"/><path class="cls-2" d="M268,368.4v30.83h-5.5V368.4H254.2v-5.19h22v5.19Z"/><path class="cls-2" d="M315.76,381.25A18.74,18.74,0,1,1,297,362.57,18.26,18.26,0,0,1,315.76,381.25Zm-5.5,0c0-8-5.51-13.61-13.23-13.61s-13.23,5.62-13.23,13.61,5.5,13.61,13.23,13.61S310.26,389.24,310.26,381.25Z"/><path class="cls-2" d="M322.68,399.23V360.78l26.13,27.38v-25h5.51v38.24l-26.14-27.38v25.16Z"/><path class="cls-2" d="M368.47,363.21v36H363v-36Z"/><path class="cls-2" d="M398.27,390.54H382.88l-3.94,8.69H373l17.93-38.12L408,399.23h-5.94Zm-2.21-5.19-5.35-12.2-5.56,12.2Z"/><path class="cls-2" d="M153.12,289.38a12.62,12.62,0,0,0,8.26,3.67,4.73,4.73,0,0,0,3.62-1.24,3.22,3.22,0,0,0,.92-2.27,2.81,2.81,0,0,0-1-2.16c-.91-.81-2.32-1.19-4.64-1.89l-2.43-.75a11.77,11.77,0,0,1-5.18-2.92,9.06,9.06,0,0,1-2.06-6.37,11.78,11.78,0,0,1,3.3-8.7,12.71,12.71,0,0,1,9.23-3.4,25.36,25.36,0,0,1,11.13,2.92l-3.73,7.29a9.47,9.47,0,0,0-6.16-2.43,4.44,4.44,0,0,0-3.07,1.08,2.66,2.66,0,0,0-.92,1.94,2.44,2.44,0,0,0,.48,1.62c.27.33.92,1,3.14,1.62l2.86.87c2.27.7,4.64,1.51,6.53,3.56a8.5,8.5,0,0,1,2.32,6.43,12.21,12.21,0,0,1-3.4,9.07c-3.08,3.08-6.8,3.67-10.64,3.67a19.11,19.11,0,0,1-7.07-1.19,25,25,0,0,1-5.45-2.86Z"/><path class="cls-2" d="M195.13,272.1v28.08h-9.34V272.1h-7.67v-7.94H202.8v7.94Z"/><path class="cls-2" d="M221.49,264.16c2.7,0,6.15.43,8.8,3.19a11.86,11.86,0,0,1,3.08,8.1A10.38,10.38,0,0,1,230.5,283a10.19,10.19,0,0,1-5,2.48l11.28,14.74H225.21l-9-13.82v13.82h-9.34v-36Zm-5.24,16.15H218a7.05,7.05,0,0,0,4.54-1.46,4.48,4.48,0,0,0,1.18-3,4.27,4.27,0,0,0-1.24-3,6.35,6.35,0,0,0-4.48-1.4h-1.78Z"/><path class="cls-2" d="M273.16,295.65a21.55,21.55,0,0,1-28.4,0,18.85,18.85,0,0,1,0-26.95,21.52,21.52,0,0,1,28.4,0,18.85,18.85,0,0,1,0,26.95Zm-21.49-20.36a9.88,9.88,0,0,0-2.86,7.07,9.16,9.16,0,0,0,2.86,6.7,10.24,10.24,0,0,0,7.29,2.86,9.78,9.78,0,0,0,10.15-9.72,9.72,9.72,0,0,0-2.91-6.91,10.79,10.79,0,0,0-7.24-2.87A10.35,10.35,0,0,0,251.67,275.29Z"/><path class="cls-2" d="M284.72,300.18v-36h9.34l17.23,22v-22h9.34v36h-9.34l-17.23-22v22Z"/><path class="cls-2" d="M345.41,279.77H364c0,7.13-1.46,12.2-5.78,16.2-3.78,3.51-8.1,4.54-12.69,4.54-6.48,0-10.91-2.38-13.82-5.35a18.16,18.16,0,0,1-5.19-13,18.79,18.79,0,0,1,5.4-13.51c3-3,7.62-5.29,14-5.29a19.28,19.28,0,0,1,9.72,2.43,17.68,17.68,0,0,1,6.43,7.4l-8.91,3.67a8.89,8.89,0,0,0-2.6-3.62,7.57,7.57,0,0,0-5-1.78,8.67,8.67,0,0,0-6.15,2.49,12.12,12.12,0,0,0-3.14,8.26A11.28,11.28,0,0,0,339.1,290a8.51,8.51,0,0,0,6.58,2.75,7.75,7.75,0,0,0,5.19-1.67,6.43,6.43,0,0,0,2.21-4h-7.67Z"/><path class="cls-2" d="M390.34,272.1H379.22v6h10.53V286H379.22v6.21h11.12v7.94H369.88v-36h20.46Z"/><path class="cls-2" d="M398.6,289.38a12.64,12.64,0,0,0,8.27,3.67,4.71,4.71,0,0,0,3.61-1.24,3.22,3.22,0,0,0,.92-2.27,2.83,2.83,0,0,0-1-2.16c-.92-.81-2.33-1.19-4.65-1.89l-2.43-.75a11.82,11.82,0,0,1-5.18-2.92,9,9,0,0,1-2.05-6.37,11.78,11.78,0,0,1,3.29-8.7,12.73,12.73,0,0,1,9.23-3.4,25.33,25.33,0,0,1,11.13,2.92L416,273.56a9.46,9.46,0,0,0-6.15-2.43,4.46,4.46,0,0,0-3.08,1.08,2.66,2.66,0,0,0-.92,1.94,2.39,2.39,0,0,0,.49,1.62c.27.33.91,1,3.13,1.62l2.86.87c2.27.7,4.64,1.51,6.53,3.56a8.5,8.5,0,0,1,2.33,6.43,12.18,12.18,0,0,1-3.41,9.07C414.7,300.4,411,301,407.14,301a19.13,19.13,0,0,1-7.08-1.19,25,25,0,0,1-5.45-2.86Z"/><path class="cls-2" d="M440.62,272.1v28.08h-9.35V272.1h-7.66v-7.94h24.67v7.94Z"/><path class="cls-2" d="M263.24,454.31c.48-.55,3.56-4.07,4.51-5.49a8.31,8.31,0,0,0,1.54-4.23,3.82,3.82,0,0,0-3.91-4c-2.69,0-4.11,2.14-4.19,4.39h-5.3c.24-5.38,4-8.81,9.25-8.81,6.12,0,9.28,4.18,9.28,8.37s-2.72,7-4.78,9.21l-4.54,4.94h9.52v4.42H255.5Z"/><path class="cls-2" d="M278.26,449.93c0-9.05,4.94-13.75,10.19-13.75s10.19,4.7,10.19,13.78-4.94,13.75-10.19,13.75S278.26,459,278.26,449.93Zm5.13,0c0,6.87,2.81,9.36,5.06,9.36s5.06-2.49,5.06-9.36-2.85-9.33-5.06-9.33S283.39,443.09,283.39,449.93Z"/><path class="cls-2" d="M310.12,454.31c.47-.55,3.55-4.07,4.5-5.49a8.31,8.31,0,0,0,1.54-4.23,3.82,3.82,0,0,0-3.91-4c-2.68,0-4.11,2.14-4.19,4.39h-5.29c.24-5.38,4-8.81,9.25-8.81,6.12,0,9.28,4.18,9.28,8.37s-2.73,7-4.78,9.21L312,458.7h9.52v4.42H302.38Z"/><path class="cls-2" d="M325.13,449.93c0-9.05,4.94-13.75,10.2-13.75s10.19,4.7,10.19,13.78-4.94,13.75-10.19,13.75S325.13,459,325.13,449.93Zm5.14,0c0,6.87,2.81,9.36,5.06,9.36s5.05-2.49,5.05-9.36-2.84-9.33-5.05-9.33S330.27,443.09,330.27,449.93Z"/></g></g></svg>